<?xml version="1.0" encoding="UTF-8" standalone="no"?>
<!DOCTYPE svg PUBLIC "-//W3C//DTD SVG 1.1//EN" "http://www.w3.org/Graphics/SVG/1.1/DTD/svg11.dtd">
<!-- Created with Vectornator (http://vectornator.io/) -->
<svg height="100%" stroke-miterlimit="10" style="fill-rule:nonzero;clip-rule:evenodd;stroke-linecap:round;stroke-linejoin:round;" version="1.1" viewBox="243.388 209.768 537.223 604.463" width="100%" xml:space="preserve" xmlns="http://www.w3.org/2000/svg" xmlns:vectornator="http://vectornator.io" xmlns:xlink="http://www.w3.org/1999/xlink">
<defs/>
<g id="Layer-2" vectornator:layerName="Layer 2">
<path d="M243.388 667.389L472.895 802.946C472.895 802.946 496.425 817.5 496.45 790.998L495.577 678.77C495.577 678.77 496.664 669.399 480.617 660.967L381.04 603.1C381.04 603.1 364.656 595.738 367.656 578.697L368.86 458.46L368.306 453.564C368.306 453.564 368.105 446.9 360.989 443.019L260.951 384.076C260.951 384.076 244.308 375.226 243.46 394.885L243.388 667.389Z" fill="#ffffff" fill-rule="nonzero" opacity="1" stroke="none" vectornator:layerName="Curve 1"/>
<path d="M539.296 812.447L771.886 679.604C771.886 679.604 778.399 676.927 778.533 664.601L780.612 400.2C780.612 400.2 780.557 382.131 764.148 391.078L656.332 454.483L656.193 602.21L524.505 678.371L525.25 803.219C525.25 803.219 525.307 819.535 539.296 812.447Z" fill="#ffffff" fill-rule="nonzero" opacity="1" stroke="none" vectornator:layerName="Curve 3"/>
<path d="M274.771 362.448L374.311 420.671C374.311 420.671 382.212 428.468 395.094 419.453L511.611 353.17L630.209 421.521C630.209 421.521 639.176 427.828 651.961 419.621L750.489 364.434C750.489 364.434 765.437 355.719 745.564 344.034L517.258 212.368C517.258 212.368 509.515 206.136 497.411 212.971L273.036 343.722C273.036 343.722 258.407 352.382 274.771 362.448Z" fill="#ffffff" fill-rule="nonzero" opacity="1" stroke="none" vectornator:layerName="Curve 2"/>
</g>
</svg>
