<?xml version="1.0" encoding="UTF-8"?>
<!-- Generated by Pixelmator Pro 3.7 -->
<svg width="537" height="604" viewBox="0 0 537 604" xmlns="http://www.w3.org/2000/svg">
    <g id="Layer-2">
        <path id="Path" fill="#000000" stroke="none" d="M 0 457.157959 L 229.506989 592.714966 C 229.506989 592.714966 253.036987 607.268982 253.062012 580.766968 L 252.188995 468.539001 C 252.188995 468.539001 253.276001 459.167969 237.229004 450.735962 L 137.652008 392.868958 C 137.652008 392.868958 121.268005 385.506958 124.268005 368.466003 L 125.471985 248.229004 L 124.917999 243.333008 C 124.917999 243.333008 124.71701 236.669006 117.601013 232.788025 L 17.562988 173.845001 C 17.562988 173.845001 0.919999 164.995026 0.072007 184.654022 L 0 457.157959 Z"/>
        <path id="path1" fill="#000000" stroke="none" d="M 295.90802 602.216003 L 528.497986 469.372986 C 528.497986 469.372986 535.010986 466.695984 535.14502 454.369995 L 537.223999 189.969025 C 537.223999 189.969025 537.169006 171.900024 520.76001 180.847015 L 412.94397 244.252014 L 412.804993 391.979004 L 281.117004 468.139954 L 281.862 592.987976 C 281.862 592.987976 281.919006 609.303955 295.90802 602.216003 Z"/>
        <path id="path2" fill="#000000" stroke="none" d="M 31.382996 152.21701 L 130.923004 210.440002 C 130.923004 210.440002 138.824005 218.237 151.705994 209.222015 L 268.222992 142.939026 L 386.820984 211.290009 C 386.820984 211.290009 395.788025 217.597015 408.572998 209.390015 L 507.101013 154.203003 C 507.101013 154.203003 522.049011 145.488007 502.176025 133.803009 L 273.869995 2.137024 C 273.869995 2.137024 266.127014 -4.094971 254.02301 2.73999 L 29.64801 133.490997 C 29.64801 133.490997 15.019013 142.151001 31.382996 152.21701 Z"/>
    </g>
</svg>
